<svg width="21" height="21" viewBox="0 0 21 21" fill="none" xmlns="http://www.w3.org/2000/svg">
<path d="M0.614 12.019C0.538 11.521 0.5 11.01 0.5 10.5C0.5 4.986 4.986 0.5 10.5 0.5C16.014 0.5 20.5 4.986 20.5 10.5C20.5 16.014 16.014 20.5 10.5 20.5C7.372 20.5 4.483 19.077 2.573 16.598C2.328 16.28 2.388 15.822 2.705 15.578C3.023 15.332 3.479 15.393 3.726 15.71C5.357 17.831 7.827 19.046 10.5 19.046C15.212 19.046 19.046 15.213 19.046 10.5C19.046 5.788 15.212 1.955 10.5 1.955C5.788 1.955 1.954 5.788 1.954 10.5C1.954 10.937 1.987 11.374 2.052 11.799C2.112 12.195 1.84 12.566 1.443 12.627C1.044 12.693 0.675 12.416 0.614 12.019Z" fill="#230B34"/>
<path d="M13.2942 10.5008C13.2942 10.6998 13.2152 10.8908 13.0732 11.0318L9.5872 14.5028C9.2932 14.7958 8.8182 14.7948 8.5262 14.5008C8.2342 14.2068 8.2342 13.7328 8.5282 13.4408L11.4812 10.5008L8.5282 7.5608C8.2342 7.2688 8.2342 6.7938 8.5262 6.4998C8.8182 6.2068 9.2932 6.2058 9.5872 6.4978L13.0732 9.9698C13.2152 10.1098 13.2942 10.3008 13.2942 10.5008Z" fill="#230B34"/>
</svg>
