<svg width="27" height="28" viewBox="0 0 27 28" fill="none" xmlns="http://www.w3.org/2000/svg">
<path d="M19.3933 27.2994H14.9667C14.4147 27.2994 13.9667 26.8514 13.9667 26.2994C13.9667 25.7474 14.4147 25.2994 14.9667 25.2994H19.3933C22.7627 25.2994 24.94 22.9967 24.94 19.434V8.56602C24.94 5.00202 22.7627 2.70068 19.3933 2.70068H7.85999C4.49866 2.70068 2.32666 5.00202 2.32666 8.56602V19.434C2.32666 22.9967 4.49866 25.2994 7.85999 25.2994H8.82133C9.37333 25.2994 9.82133 25.7474 9.82133 26.2994C9.82133 26.8514 9.37333 27.2994 8.82133 27.2994H7.85999C3.35466 27.2994 0.32666 24.138 0.32666 19.434V8.56602C0.32666 3.86202 3.35466 0.700684 7.85999 0.700684H19.3933C23.908 0.700684 26.94 3.86202 26.94 8.56602V19.434C26.94 24.138 23.908 27.2994 19.3933 27.2994Z" fill="#FFC100"/>
<path d="M4.70199 20.9439C4.45533 20.9439 4.20733 20.8532 4.01399 20.6706C3.61399 20.2906 3.59666 19.6572 3.97666 19.2559L6.01533 17.1039C6.55933 16.5279 7.29533 16.2092 8.08866 16.2066C8.854 16.2572 9.62066 16.5172 10.17 17.0879L11.3447 18.2852C11.5273 18.4719 11.7673 18.5759 12.0353 18.5572C12.2967 18.5452 12.5327 18.4279 12.6993 18.2252L15.6713 14.6092C16.258 13.8959 17.1247 13.4639 18.0487 13.4252C18.97 13.3972 19.8713 13.7479 20.514 14.4106L23.2833 17.2652C23.6673 17.6626 23.658 18.2959 23.2607 18.6799C22.8647 19.0652 22.2313 19.0532 21.8473 18.6586L19.078 15.8039C18.8273 15.5452 18.4993 15.3999 18.13 15.4239C17.77 15.4386 17.446 15.6012 17.2167 15.8799L14.2447 19.4959C13.7207 20.1332 12.9473 20.5199 12.1233 20.5559C11.298 20.5732 10.4953 20.2746 9.91666 19.6866L8.73533 18.4812C8.562 18.3026 8.342 18.1452 8.09666 18.2066C7.85533 18.2079 7.63266 18.3052 7.46733 18.4786L5.42733 20.6319C5.23133 20.8399 4.96733 20.9439 4.70199 20.9439Z" fill="#FFC100"/>
<path fill-rule="evenodd" clip-rule="evenodd" d="M9.07372 13.5508C7.23238 13.5508 5.73505 12.0535 5.73505 10.2122C5.73505 8.37083 7.23238 6.8735 9.07372 6.8735C10.9137 6.8735 12.4111 8.37083 12.4111 10.2122C12.4111 12.0535 10.9137 13.5508 9.07372 13.5508ZM9.07372 8.8735C8.33505 8.8735 7.73505 9.4735 7.73505 10.2122C7.73505 10.9508 8.33505 11.5508 9.07372 11.5508C9.81105 11.5508 10.4111 10.9508 10.4111 10.2122C10.4111 9.4735 9.81105 8.8735 9.07372 8.8735Z" fill="#FFC100"/>
</svg>
