<svg width="20" height="21" viewBox="0 0 20 21" fill="none" xmlns="http://www.w3.org/2000/svg">
<path d="M13.747 0.5H6.254C2.41 0.5 2.1874e-06 2.893 2.1874e-06 6.753V9.075C-0.000997813 9.497 0.341002 9.84 0.763002 9.84H0.774002C1.191 9.84 1.53 9.502 1.53 9.084V6.753C1.53 3.71 3.21 2.03 6.253 2.03H13.747C16.8 2.03 18.47 3.71 18.47 6.753V14.253C18.47 17.296 16.79 18.967 13.747 18.967H6.254C3.202 18.967 1.531 17.287 1.531 14.253C1.531 13.831 1.188 13.488 0.766002 13.488C0.343002 13.488 0.00100219 13.831 0.00100219 14.253C2.18733e-06 18.108 2.392 20.5 6.244 20.5H13.747C17.608 20.5 20 18.108 20 14.256V6.756C20 2.893 17.608 0.5 13.747 0.5Z" fill="white" fill-opacity="0.5"/>
<path d="M9.9945 15.0459C9.5805 15.0459 9.2445 14.7099 9.2445 14.2959V9.8759C9.2445 9.4619 9.5805 9.1259 9.9945 9.1259C10.4085 9.1259 10.7445 9.4619 10.7445 9.8759V14.2959C10.7445 14.7099 10.4085 15.0459 9.9945 15.0459Z" fill="white" fill-opacity="0.5"/>
<path d="M9.9948 7.4541H10.0048C10.4188 7.4541 10.7548 7.1181 10.7548 6.7041C10.7548 6.2901 10.4188 5.9541 10.0048 5.9541C9.5908 5.9541 9.2498 6.2901 9.2498 6.7041C9.2498 7.1181 9.5808 7.4541 9.9948 7.4541Z" fill="white" fill-opacity="0.5"/>
</svg>
