<svg width="27" height="28" viewBox="0 0 27 28" fill="none" xmlns="http://www.w3.org/2000/svg">
<path d="M18.3293 0.666748H8.33867C3.21334 0.666748 2.91654e-06 3.85741 2.91654e-06 9.00408V12.1001C-0.00133042 12.6627 0.45467 13.1201 1.01734 13.1201H1.032C1.588 13.1201 2.04 12.6694 2.04 12.1121V9.00408C2.04 4.94675 4.28 2.70675 8.33734 2.70675H18.3293C22.4 2.70675 24.6267 4.94675 24.6267 9.00408V19.0041C24.6267 23.0614 22.3867 25.2894 18.3293 25.2894H8.33867C4.26934 25.2894 2.04134 23.0494 2.04134 19.0041C2.04134 18.4414 1.584 17.9841 1.02134 17.9841C0.457336 17.9841 0.00133625 18.4414 0.00133625 19.0041C2.91644e-06 24.1441 3.18934 27.3334 8.32534 27.3334H18.3293C23.4773 27.3334 26.6667 24.1441 26.6667 19.0081V9.00808C26.6667 3.85741 23.4773 0.666748 18.3293 0.666748Z" fill="#FFC100"/>
<path d="M13.326 20.0613C12.774 20.0613 12.326 19.6133 12.326 19.0613V13.168C12.326 12.616 12.774 12.168 13.326 12.168C13.878 12.168 14.326 12.616 14.326 13.168V19.0613C14.326 19.6133 13.878 20.0613 13.326 20.0613Z" fill="#FFC100"/>
<path d="M13.3264 9.93888H13.3397C13.8917 9.93888 14.3397 9.49088 14.3397 8.93888C14.3397 8.38688 13.8917 7.93888 13.3397 7.93888C12.7877 7.93888 12.3331 8.38688 12.3331 8.93888C12.3331 9.49088 12.7744 9.93888 13.3264 9.93888Z" fill="#FFC100"/>
</svg>
