<svg width="6" height="7" viewBox="0 0 6 7" fill="none" xmlns="http://www.w3.org/2000/svg">
<path d="M2.83331 0.166748H2.84443C4.40656 0.172887 5.67277 1.44741 5.66662 3.00752V3.03851C5.64555 4.15342 4.97527 5.07861 4.4168 5.65829C4.25787 5.82403 4.08869 5.98305 3.91424 6.13155C3.80975 6.22071 3.65286 6.20843 3.56359 6.10407C3.47432 5.99942 3.4869 5.84274 3.5914 5.75358C3.75297 5.6159 3.91015 5.46798 4.05796 5.31393C4.55496 4.79828 5.15089 3.983 5.16904 3.02945C5.17401 1.71956 4.13055 0.668663 2.84238 0.663401H2.83331C1.54954 0.663401 0.502562 1.70406 0.497586 2.98706C0.519538 3.62081 0.733793 4.22328 1.11752 4.72871C1.56535 5.32504 2.2447 5.95645 2.89039 6.37681C3.00571 6.45164 3.0382 6.6054 2.96298 6.72058C2.91556 6.79366 2.83565 6.83342 2.75428 6.83342C2.70774 6.83342 2.66091 6.82055 2.61876 6.79307C1.92741 6.34319 1.19977 5.66676 0.720036 5.02804C0.274843 4.44135 0.0257574 3.74125 0 3.00431C0.00614665 1.4287 1.27616 0.166748 2.83331 0.166748Z" fill="#F4003B"/>
<path d="M2.25185 3.0382C2.25185 3.35771 2.51236 3.61816 2.83257 3.61816C3.15278 3.61816 3.41328 3.35771 3.41328 3.0382C3.41328 2.7184 3.15278 2.45794 2.83257 2.45794C2.69529 2.45794 2.58377 2.34686 2.58377 2.20976C2.58377 2.07237 2.69529 1.96129 2.83257 1.96129C3.42704 1.96129 3.91086 2.4442 3.91086 3.0382C3.91086 3.6319 3.42704 4.11482 2.83257 4.11482C2.2381 4.11482 1.75427 3.6319 1.75427 3.0382C1.75427 2.90081 1.86579 2.78973 2.00306 2.78973C2.14034 2.78973 2.25185 2.90081 2.25185 3.0382Z" fill="#F4003B"/>
</svg>
