<svg width="28" height="28" viewBox="0 0 28 28" fill="none" xmlns="http://www.w3.org/2000/svg">
<path d="M24.2785 0.769807C25.1919 0.504106 26.1812 0.760413 26.8519 1.44345C27.5226 2.12515 27.7706 3.11951 27.4973 4.04007L25.8319 9.64259C25.6732 10.1753 25.1185 10.4773 24.5878 10.3189C24.0585 10.1592 23.7571 9.59831 23.9158 9.06691L25.5812 3.46304C25.6745 3.14903 25.5079 2.93701 25.4319 2.86052C25.3559 2.78269 25.1425 2.61361 24.8345 2.70352L3.3791 8.94211C3.03776 9.04141 2.96309 9.32724 2.94709 9.44533C2.93242 9.56342 2.92709 9.85864 3.2311 10.0465L7.74592 12.8243C8.21661 13.1141 8.36594 13.7341 8.0766 14.2092C7.88859 14.5178 7.56058 14.6896 7.22324 14.6896C7.0459 14.6896 6.86589 14.6426 6.70322 14.5419L2.1884 11.7628C1.2937 11.2126 0.824349 10.2223 0.964353 9.17695C1.10436 8.13025 1.81772 7.2996 2.82442 7.00706L24.2785 0.769807Z" fill="#FFC100"/>
<path d="M22.3108 14.4657C22.4708 13.9316 23.0268 13.6283 23.5562 13.7894C24.0855 13.949 24.3869 14.51 24.2282 15.0427L21.1321 25.4614C20.8321 26.4692 20.0027 27.1777 18.9667 27.3106C18.8507 27.3267 18.736 27.3334 18.6213 27.3334C17.7173 27.3334 16.8906 26.8691 16.4093 26.072L10.9424 17.0194C10.7037 16.6222 10.7637 16.1122 11.0904 15.7848L18.852 7.97347C19.2427 7.58029 19.8747 7.58029 20.2654 7.97347C20.6561 8.36665 20.6561 9.00407 20.2654 9.39725L13.0598 16.6503L18.1187 25.0266C18.3027 25.3312 18.592 25.3285 18.712 25.3151C18.8294 25.299 19.1134 25.2266 19.2147 24.8857L22.3108 14.4657Z" fill="#FFC100"/>
</svg>
