<svg width="28" height="28" viewBox="0 0 28 28" fill="none" xmlns="http://www.w3.org/2000/svg">
<path d="M21.3302 27.2242C21.1662 27.2282 21.0035 27.1869 20.8608 27.1042L14.0102 23.4962L7.97817 26.7442C6.99417 27.2775 5.76217 26.9122 5.22884 25.9269C5.22217 25.9149 5.2155 25.9029 5.20884 25.8895C4.9995 25.4775 4.92617 25.0122 4.99817 24.5562L6.1715 17.6309L1.2675 12.6655C0.466171 11.8389 0.466171 10.5242 1.2675 9.69621C1.5795 9.36821 1.99284 9.15621 2.44084 9.09488L9.16484 8.07354L12.1555 1.84288C12.6208 0.829543 13.8195 0.38421 14.8342 0.849543C15.2742 1.05088 15.6262 1.40421 15.8275 1.84288L18.8315 8.09488L25.5782 9.12821C26.1235 9.20954 26.6128 9.51088 26.9328 9.96021C27.5302 10.8189 27.4395 11.9789 26.7168 12.7349L21.8355 17.6415L22.5155 21.3735C22.6102 21.9335 22.2408 22.4682 21.6822 22.5735C21.1328 22.6722 20.6075 22.3069 20.5088 21.7562L19.8168 18.0242C19.7008 17.3402 19.9182 16.6415 20.4035 16.1469L25.2968 11.2055L18.5502 10.1589C17.8662 10.0482 17.2862 9.59488 17.0128 8.95888L14.0102 2.73354L10.9702 9.05754C10.6968 9.69488 10.1168 10.1469 9.43284 10.2575L2.70884 11.2789L7.56617 16.2122C8.05017 16.6989 8.2675 17.3882 8.15284 18.0642L6.9795 24.9895L13.0102 21.7549C13.6075 21.4189 14.3368 21.4189 14.9342 21.7549L21.7755 25.3629C22.1928 25.5909 22.4048 26.0722 22.2915 26.5349C22.1875 26.9975 21.7795 27.3269 21.3062 27.3349L21.3302 27.2242Z" fill="#FFC100"/>
</svg>
