<svg xmlns="http://www.w3.org/2000/svg" xmlns:xlink="http://www.w3.org/1999/xlink" width="0" height="0" style="position:absolute">
	
		<symbol id="icon_arrow-circle-right" viewBox="0 0 25 25">
			<path fill-rule="evenodd" clip-rule="evenodd" d="M2.614 14.019A10.1 10.1 0 0 1 2.5 12.5c0-5.514 4.486-10 10-10 5.515 0 10 4.486 10 10s-4.485 10-10 10a9.939 9.939 0 0 1-7.927-3.902.728.728 0 0 1 1.153-.888 8.486 8.486 0 0 0 6.775 3.336c4.711 0 8.546-3.833 8.546-8.546 0-4.712-3.835-8.545-8.546-8.545-4.713 0-8.547 3.833-8.547 8.545 0 .437.033.874.098 1.299a.728.728 0 0 1-1.438.22zm12.68-1.518c0 .199-.078.39-.22.53l-3.486 3.472a.75.75 0 1 1-1.06-1.062l2.954-2.94-2.953-2.94a.75.75 0 1 1 1.059-1.063l3.486 3.472c.142.14.22.33.22.53z" fill="#230B34"></path>
		</symbol>
	
		<symbol id="icon_date" viewBox="0 0 18 20">
			<path fill-rule="evenodd" clip-rule="evenodd" d="M13.452.735V1.77C16.461 2.062 18 3.725 18 6.714v8.27C18 18.312 16.104 20 12.374 20H5.626C1.896 20 0 18.31 0 14.985v-8.27C0 4.724.678 3.3 2.07 2.468c.219-.15.503-.16.732-.027a.71.71 0 0 1 .35.655.707.707 0 0 1-.422.61c-.921.548-1.356 1.504-1.356 3.007v.266H14.06c.38 0 .687.313.687.699a.693.693 0 0 1-.687.698H1.374v6.608c0 2.538 1.235 3.59 4.252 3.609h6.748c2.974 0 4.243-1.08 4.243-3.618v-8.27c0-2.212-.965-3.282-3.165-3.538v.672a.7.7 0 0 1-.715.606.701.701 0 0 1-.667-.66V.674a.704.704 0 0 1 .222-.49.68.68 0 0 1 .5-.182.712.712 0 0 1 .66.734zM5.71 4.293a.68.68 0 0 1-.492.201.693.693 0 0 1-.67-.707V.735A.7.7 0 0 1 5.24.106a.7.7 0 0 1 .691.63v.963h3.93c.38 0 .688.313.688.699a.693.693 0 0 1-.687.699H5.913v.699a.705.705 0 0 1-.204.497zm7.482 6.322c-.48 0-.87.396-.87.885 0 .488.39.884.87.884s.87-.396.87-.884a.892.892 0 0 0-.258-.629.862.862 0 0 0-.62-.256h.008zm-5.043.885c0-.489.39-.885.87-.885s.869.396.869.885c0 .488-.39.884-.87.884a.877.877 0 0 1-.87-.884zm-3.296-.885c-.48 0-.87.396-.87.885 0 .488.39.884.87.884s.87-.396.87-.884a.892.892 0 0 0-.258-.629.862.862 0 0 0-.62-.256h.008zm7.47 4.467c0-.489.39-.885.87-.885h-.01a.862.862 0 0 1 .621.256.892.892 0 0 1 .258.629c0 .489-.39.885-.87.885a.877.877 0 0 1-.87-.885zm-3.305-.885c-.48 0-.87.397-.87.885 0 .489.39.885.87.885s.87-.396.87-.885a.877.877 0 0 0-.87-.885zm-5.034.885c0-.489.389-.885.87-.885h-.01a.862.862 0 0 1 .621.256.892.892 0 0 1 .258.629c0 .489-.39.885-.87.885a.877.877 0 0 1-.87-.885z" fill="#DCB22F"></path>
		</symbol>
	
		<symbol id="icon_fb" viewBox="0 0 30 30">
			<rect width="30" height="30" rx="15" fill="#fff" fill-opacity=".3"></rect><path d="M16.002 25v-9.123h3.062l.458-3.555h-3.52v-2.27c0-1.03.286-1.731 1.762-1.731l1.882-.001V5.14A25.234 25.234 0 0 0 16.903 5c-2.714 0-4.573 1.657-4.573 4.7v2.622H9.26v3.555h3.07V25h3.672z" fill="#000"></path>
		</symbol>
	
		<symbol id="icon_info" viewBox="0 0 24 25">
			<path fill-rule="evenodd" clip-rule="evenodd" d="M15.747 2.5H8.254C4.41 2.5 2 4.893 2 8.753v2.322a.763.763 0 0 0 .763.765h.011a.756.756 0 0 0 .756-.756V8.753c0-3.043 1.68-4.723 4.723-4.723h7.494c3.053 0 4.723 1.68 4.723 4.723v7.5c0 3.043-1.68 4.714-4.723 4.714H8.254c-3.052 0-4.723-1.68-4.723-4.714a.766.766 0 0 0-1.53 0C2 20.108 4.392 22.5 8.244 22.5h7.503c3.861 0 6.253-2.392 6.253-6.244v-7.5C22 4.893 19.608 2.5 15.747 2.5zm-3.752 14.546a.75.75 0 0 1-.75-.75v-4.42a.75.75 0 0 1 1.5 0v4.42a.75.75 0 0 1-.75.75zm0-7.592h.01a.75.75 0 0 0 0-1.5.755.755 0 0 0-.755.75c0 .414.33.75.745.75z" fill="#fff" fill-opacity=".5"></path>
		</symbol>
	
		<symbol id="icon_place" viewBox="0 0 12 15">
			<path fill-rule="evenodd" clip-rule="evenodd" d="M6 .833h.022c3.124.013 5.656 2.562 5.644 5.682v.062c-.042 2.23-1.382 4.08-2.5 5.24-.317.331-.656.65-1.005.946a.498.498 0 0 1-.645-.756c.323-.275.637-.571.933-.88.994-1.03 2.186-2.661 2.222-4.568.01-2.62-2.077-4.722-4.653-4.732H6a4.674 4.674 0 0 0-4.672 4.647 6.08 6.08 0 0 0 1.24 3.483c.896 1.193 2.254 2.456 3.546 3.297a.496.496 0 0 1-.272.913.493.493 0 0 1-.271-.08c-1.383-.9-2.838-2.253-3.798-3.53a7.071 7.071 0 0 1-1.44-4.048C.345 3.357 2.885.833 6 .833zM4.837 6.576a1.162 1.162 0 0 0 2.323 0c0-.64-.521-1.16-1.162-1.16a.497.497 0 1 1 0-.994c1.19 0 2.157.966 2.157 2.154a2.157 2.157 0 0 1-4.313 0 .497.497 0 0 1 .995 0z" fill="#F4003B"></path>
		</symbol>
	
		<symbol id="icon_search" viewBox="0 0 20 20">
			<path d="M19.756 18.607l-3.438-3.361-.08-.123a.806.806 0 0 0-1.137 0c-2.921 2.68-7.423 2.826-10.519.34C1.486 12.979.756 8.634 2.876 5.31 4.996 1.987 9.308.717 12.953 2.342c3.645 1.625 5.49 5.642 4.314 9.386a.78.78 0 0 0 .182.771.821.821 0 0 0 .774.232.803.803 0 0 0 .593-.54c1.406-4.442-.718-9.223-5-11.25C9.534-1.085 4.381.251 1.69 4.085-1.003 7.92-.425 13.102 3.05 16.28c3.474 3.178 8.8 3.397 12.535.516l3.044 2.975a.819.819 0 0 0 1.137 0 .784.784 0 0 0 0-1.12l-.01-.043z" fill="#DCB22F"></path>
		</symbol>
	
		<symbol id="icon_star" viewBox="0 0 21 20">
			<path d="M15.919 11.82a1.1 1.1 0 0 0-.32.97l.89 4.92a1.08 1.08 0 0 1-.45 1.08 1.1 1.1 0 0 1-1.17.08l-4.43-2.31a1.13 1.13 0 0 0-.5-.131h-.27a.812.812 0 0 0-.27.09l-4.43 2.321c-.22.11-.467.149-.71.11a1.112 1.112 0 0 1-.89-1.271l.89-4.92a1.119 1.119 0 0 0-.32-.979L.33 8.28a1.08 1.08 0 0 1-.27-1.13c.135-.396.477-.685.89-.75l4.97-.721c.378-.039.71-.269.88-.609L8.989.58c.052-.1.119-.192.2-.27l.09-.07a.671.671 0 0 1 .16-.13l.11-.04.17-.07h.42c.377.039.708.264.88.6l2.22 4.47c.16.327.47.554.83.609l4.97.721c.42.06.77.35.91.75.13.401.018.841-.29 1.13l-3.74 3.54z" fill="#FFC100"></path>
		</symbol>
	
		<symbol id="icon_user" viewBox="0 0 16 20">
			<path fill-rule="evenodd" clip-rule="evenodd" d="M4.058 5.354c0-2.16 1.768-3.917 3.942-3.917 2.174 0 3.942 1.757 3.942 3.917 0 2.159-1.768 3.916-3.942 3.916-2.174 0-3.942-1.757-3.942-3.916zm-1.446 0c0 2.95 2.417 5.353 5.388 5.353 2.97 0 5.387-2.402 5.387-5.353C13.387 2.402 10.97 0 8 0 5.03 0 2.612 2.402 2.612 5.354zm4.366 14.631c.335.01.676.015 1.022.015 3.434 0 8-.381 8-3.67 0-3.69-6.022-3.69-8-3.69-3.434 0-8 .38-8 3.67 0 .985.46 2.314 2.657 3.053.379.13.788-.075.916-.45a.716.716 0 0 0-.453-.909c-1.502-.506-1.675-1.209-1.675-1.694 0-1.483 2.206-2.235 6.555-2.235 4.35 0 6.555.76 6.555 2.255 0 1.482-2.206 2.233-6.555 2.233-.332 0-.66-.004-.981-.013-.387.003-.73.301-.742.697a.717.717 0 0 0 .7.738z" fill="#DCB22F"></path>
		</symbol>
	
		<symbol id="icon_vk" viewBox="0 0 30 30">
			<rect width="30" height="30" rx="15" fill="#fff" fill-opacity=".3"></rect><path fill-rule="evenodd" clip-rule="evenodd" d="M24.541 10.334c.14-.464 0-.804-.662-.804h-2.188c-.556 0-.812.294-.951.619 0 0-1.113 2.712-2.69 4.473-.51.51-.741.672-1.02.672-.139 0-.34-.162-.34-.625v-4.335c0-.556-.161-.804-.625-.804h-3.438c-.348 0-.557.258-.557.503 0 .527.788.649.87 2.132v3.222c0 .707-.128.835-.406.835-.742 0-2.546-2.724-3.617-5.842-.21-.605-.42-.85-.979-.85H5.75c-.625 0-.75.294-.75.619 0 .58.742 3.454 3.454 7.255 1.808 2.596 4.355 4.004 6.673 4.004 1.391 0 1.563-.313 1.563-.851v-1.963c0-.625.132-.75.572-.75.325 0 .881.163 2.18 1.415 1.483 1.483 1.727 2.149 2.562 2.149h2.188c.625 0 .938-.313.757-.93-.197-.615-.905-1.507-1.845-2.564-.51-.603-1.275-1.252-1.507-1.576-.324-.418-.232-.603 0-.974 0 0 2.666-3.755 2.944-5.03z" fill="#000"></path>
		</symbol>
	
		<symbol id="icon_yo" viewBox="0 0 30 30">
			<rect width="30" height="30" rx="15" fill="#fff" fill-opacity=".3"></rect><path fill-rule="evenodd" clip-rule="evenodd" d="M22.336 8.838a2.35 2.35 0 0 1 1.653 1.652c.401 1.467.386 4.525.386 4.525s0 3.043-.386 4.51a2.35 2.35 0 0 1-1.653 1.653c-1.467.386-7.336.386-7.336.386s-5.854 0-7.336-.401A2.35 2.35 0 0 1 6.01 19.51C5.625 18.058 5.625 15 5.625 15s0-3.043.386-4.51a2.397 2.397 0 0 1 1.653-1.668C9.13 8.436 15 8.436 15 8.436s5.869 0 7.336.402zM18.012 15l-4.88 2.811v-5.622L18.011 15z" fill="#000"></path>
		</symbol>
	
</svg>
