<svg width="24" height="25" viewBox="0 0 24 25" fill="none" xmlns="http://www.w3.org/2000/svg">
<path fill-rule="evenodd" clip-rule="evenodd" d="M12.7735 5.24399C12.4759 5.56949 12.4759 6.09538 12.7756 6.41866L16.1771 10.0977L16.2557 10.172C16.5561 10.4196 16.9848 10.3938 17.2576 10.0955C17.4065 9.93271 17.4809 9.72125 17.4809 9.50979C17.4809 9.29611 17.4065 9.08354 17.2556 8.92079L13.8551 5.24177L13.7765 5.16771C13.476 4.92092 13.0464 4.94663 12.7735 5.24399ZM4.0959 11.676C3.71908 11.7272 3.42725 12.0767 3.42725 12.4998C3.42725 12.9582 3.76975 13.3302 4.19176 13.3302H17.6308L12.7757 18.5813L12.707 18.6661C12.4781 18.9909 12.5008 19.4576 12.7736 19.756C13.0713 20.0804 13.5555 20.0815 13.8541 19.7582L20.0212 13.0877L20.0892 13.0042C20.1927 12.8581 20.2465 12.6797 20.2465 12.4998C20.2465 12.3924 20.2271 12.285 20.1884 12.1832C20.0701 11.8721 19.7918 11.6695 19.482 11.6695H4.19176L4.0959 11.676Z" fill="white"/>
</svg>
